<?xml version="1.0" standalone="no"?>
<!DOCTYPE svg PUBLIC "-//W3C//DTD SVG 20010904//EN"
 "http://www.w3.org/TR/2001/REC-SVG-20010904/DTD/svg10.dtd">
<svg version="1.0" xmlns="http://www.w3.org/2000/svg"
 width="600.000000pt" height="600.000000pt" viewBox="0 0 600.000000 600.000000"
 preserveAspectRatio="xMidYMid meet">
<metadata>
Created by potrace 1.14, written by Peter Selinger 2001-2017
</metadata>
<g transform="translate(0.000000,600.000000) scale(0.100000,-0.100000)"
fill="#000000" stroke="none">
<path d="M1645 5743 c-5 -16 -7 -40 -6 -55 1 -16 -2 -28 -7 -28 -6 0 -8 -13
-6 -28 8 -49 -9 -54 -190 -53 l-164 0 -7 -32 c-4 -18 -9 -43 -10 -57 -1 -14
-4 -32 -8 -40 -3 -8 -5 -22 -5 -30 -1 -22 -13 -93 -19 -110 -4 -8 -7 -28 -8
-45 -1 -16 -5 -38 -9 -48 -5 -9 -6 -26 -3 -37 3 -11 2 -20 -3 -20 -4 0 -11
-21 -14 -47 -11 -82 -13 -98 -19 -113 -3 -8 -8 -33 -11 -55 -3 -22 -8 -53 -11
-70 -13 -75 -16 -93 -21 -137 -3 -27 -9 -48 -13 -48 -3 0 -7 -12 -8 -27 -2
-16 -5 -46 -8 -68 -3 -22 -8 -59 -11 -82 -4 -24 -10 -43 -14 -43 -5 0 -7 -8
-6 -17 3 -17 66 -18 1151 -21 l1147 -2 -17 -28 c-10 -15 -71 -80 -136 -145
-66 -65 -119 -122 -119 -126 0 -4 -56 -63 -125 -131 -69 -68 -125 -127 -125
-132 0 -4 -57 -64 -127 -133 -70 -69 -124 -125 -119 -125 4 0 -51 -59 -123
-130 -72 -72 -131 -133 -131 -137 0 -4 -61 -70 -136 -148 -76 -77 -191 -197
-258 -267 -67 -71 -176 -185 -243 -254 -68 -69 -123 -128 -123 -131 0 -3 -16
-23 -35 -44 -19 -22 -35 -37 -35 -35 0 2 -41 -39 -91 -92 -50 -54 -147 -154
-215 -224 -68 -69 -124 -129 -124 -133 0 -4 -57 -65 -128 -137 -70 -72 -185
-192 -257 -268 -71 -75 -135 -138 -141 -139 -5 0 -9 -14 -8 -31 1 -16 -2 -30
-6 -30 -8 0 -20 -71 -20 -119 0 -13 -4 -29 -10 -36 -5 -6 -7 -22 -5 -35 2 -13
1 -28 -4 -34 -9 -12 -23 -86 -23 -128 0 -16 -4 -28 -8 -28 -4 0 -7 -16 -6 -36
1 -20 -2 -38 -6 -40 -5 -3 -8 -21 -8 -40 0 -19 -4 -34 -8 -34 -5 0 -8 -18 -7
-40 1 -22 -1 -40 -5 -40 -4 0 -8 -12 -9 -27 -1 -38 -11 -105 -18 -123 -4 -8
-7 -26 -8 -40 -1 -14 -5 -32 -8 -40 -9 -24 -18 -82 -17 -114 0 -15 -4 -33 -8
-40 -5 -6 -9 -18 -9 -26 0 -9 -3 -28 -7 -43 l-6 -27 1928 0 c1535 0 1929 3
1930 13 1 6 5 32 8 57 4 25 10 50 14 55 4 6 7 21 5 35 -1 14 2 30 9 35 6 6 78
10 179 10 165 0 167 0 167 22 0 12 4 24 8 27 4 2 7 17 6 33 -1 15 2 33 6 38 4
6 8 24 7 40 0 17 3 37 6 45 9 23 18 72 20 105 1 17 5 35 8 40 8 12 23 124 20
143 -1 6 3 12 9 12 6 0 9 15 7 35 -3 20 -1 37 3 40 6 4 11 31 25 135 2 14 4
25 5 25 2 0 4 11 5 25 1 14 5 32 8 40 3 8 8 33 11 55 3 22 9 54 12 70 10 60
15 91 21 138 3 26 9 47 14 47 5 0 9 4 9 10 0 5 -429 9 -1146 9 -631 0 -1148 2
-1150 4 -2 2 39 48 91 103 89 93 143 149 475 499 73 77 187 197 254 267 66 70
176 185 242 255 218 230 395 416 521 545 68 70 123 130 123 134 0 3 55 61 123
128 67 67 123 126 124 130 3 10 43 60 43 53 0 -5 53 50 336 348 68 72 180 189
249 260 226 236 258 278 242 319 -3 7 -1 18 4 23 8 8 16 50 22 118 1 11 6 26
10 33 5 7 7 22 6 35 -2 12 1 33 6 47 8 24 12 47 18 100 2 14 7 41 12 60 5 19
8 43 6 53 -1 9 2 17 8 17 5 0 8 14 6 32 -3 17 0 37 6 44 6 7 9 23 8 36 -2 13
1 30 6 38 5 8 8 27 7 42 -1 14 2 29 6 32 5 3 8 21 7 41 -2 19 1 38 6 41 5 3 9
21 9 40 0 19 4 34 8 34 4 0 7 18 5 40 -1 22 2 40 8 40 5 0 7 13 4 29 -3 17 -1
33 5 36 5 3 10 17 10 31 l0 24 -1929 0 -1929 0 -7 -27z"/>
</g>
</svg>
